<svg width="300" height="80" viewBox="0 0 300 80" fill="none" xmlns="http://www.w3.org/2000/svg">
<path fill-rule="evenodd" clip-rule="evenodd" d="M49.2041 9.8424H53.9658V14.6041H57.1403V16.1913H58.7275V20.953H61.9019V25.7147H36.5063V20.953H39.6807V16.1913H41.268V14.6041H44.4424V9.8424H49.2041ZM33.3318 38.4125V33.6508H65.0764V38.4125V41.587V46.3487H33.3318V41.587V38.4125ZM36.5063 54.2848V59.0465H39.6807V63.8082H41.268V65.3954H44.4424V70.1571H49.2041H53.9658V65.3954H57.1403V63.8082H58.7275V59.0465H61.9019V54.2848H36.5063ZM25.3957 38.4125V33.6508H7.93615V38.4125V41.587V46.3487H25.3957V41.587V38.4125ZM0 41.587V38.4125V28.8891H1.58723V25.7147H4.76169V20.953H6.34892V16.1913H11.1106V13.0169H15.8723V9.8424H20.634V6.66794H25.3957V5.08071H31.7446V1.90625H49.2041H66.6636V5.08071H73.0126V6.66794H77.7742V9.8424H82.5359V13.0169H87.2976V16.1913H92.0593V20.953H93.6465V25.7147H96.821V28.8891H98.4082V38.4125V41.587V51.1104H96.821V54.2848H93.6465V59.0465H92.0593V63.8082H87.2976V66.9827H82.5359V70.1571H77.7742V73.3316H73.0126V74.9188H66.6636V78.0933H49.2041H31.7446V74.9188H25.3957V73.3316H20.634V70.1571H15.8723V66.9827H11.1106V63.8082H6.34892V59.0465H4.76169V54.2848H1.58723V51.1104H0V41.587ZM73.0126 41.587V38.4125V33.6508H90.4721V38.4125V41.587V46.3487H73.0126V41.587ZM66.6636 13.0169H69.8381V14.6041H74.5998V17.7785H79.3615V20.953H84.1232V24.1275H85.7104V25.7147H73.0126H71.4253H69.8381V17.7785H66.6636V13.0169ZM12.6978 54.2848V55.872H14.2851V59.0465H19.0468V62.221H23.8084V65.3954H28.5701V66.9827H31.7446V62.221H28.5701V54.2848H26.9829H25.3957H12.6978ZM73.0126 54.2848H71.4253H69.8381V62.221H66.6636V66.9827H69.8381V65.3954H74.5998V62.221H79.3615V59.0465H84.1232V55.872H85.7104V54.2848H73.0126ZM28.5701 13.0169H31.7446V17.7785H28.5701V25.7147H26.9829H25.3957H12.6978V24.1275H14.2851V20.953H19.0468V17.7785H23.8084V14.6041H28.5701V13.0169Z" fill="url(#paint0_linear_6004_3117)"/>
<path fill-rule="evenodd" clip-rule="evenodd" d="M49.2041 9.8424H53.9658V14.6041H57.1403V16.1913H58.7275V20.953H61.9019V25.7147H36.5063V20.953H39.6807V16.1913H41.268V14.6041H44.4424V9.8424H49.2041ZM33.3318 38.4125V33.6508H65.0764V38.4125V41.587V46.3487H33.3318V41.587V38.4125ZM36.5063 54.2848V59.0465H39.6807V63.8082H41.268V65.3954H44.4424V70.1571H49.2041H53.9658V65.3954H57.1403V63.8082H58.7275V59.0465H61.9019V54.2848H36.5063ZM25.3957 38.4125V33.6508H7.93615V38.4125V41.587V46.3487H25.3957V41.587V38.4125ZM0 41.587V38.4125V28.8891H1.58723V25.7147H4.76169V20.953H6.34892V16.1913H11.1106V13.0169H15.8723V9.8424H20.634V6.66794H25.3957V5.08071H31.7446V1.90625H49.2041H66.6636V5.08071H73.0126V6.66794H77.7742V9.8424H82.5359V13.0169H87.2976V16.1913H92.0593V20.953H93.6465V25.7147H96.821V28.8891H98.4082V38.4125V41.587V51.1104H96.821V54.2848H93.6465V59.0465H92.0593V63.8082H87.2976V66.9827H82.5359V70.1571H77.7742V73.3316H73.0126V74.9188H66.6636V78.0933H49.2041H31.7446V74.9188H25.3957V73.3316H20.634V70.1571H15.8723V66.9827H11.1106V63.8082H6.34892V59.0465H4.76169V54.2848H1.58723V51.1104H0V41.587ZM73.0126 41.587V38.4125V33.6508H90.4721V38.4125V41.587V46.3487H73.0126V41.587ZM66.6636 13.0169H69.8381V14.6041H74.5998V17.7785H79.3615V20.953H84.1232V24.1275H85.7104V25.7147H73.0126H71.4253H69.8381V17.7785H66.6636V13.0169ZM12.6978 54.2848V55.872H14.2851V59.0465H19.0468V62.221H23.8084V65.3954H28.5701V66.9827H31.7446V62.221H28.5701V54.2848H26.9829H25.3957H12.6978ZM73.0126 54.2848H71.4253H69.8381V62.221H66.6636V66.9827H69.8381V65.3954H74.5998V62.221H79.3615V59.0465H84.1232V55.872H85.7104V54.2848H73.0126ZM28.5701 13.0169H31.7446V17.7785H28.5701V25.7147H26.9829H25.3957H12.6978V24.1275H14.2851V20.953H19.0468V17.7785H23.8084V14.6041H28.5701V13.0169Z" fill="url(#paint1_linear_6004_3117)"/>
<path d="M121.24 14.9235V37.0111H135.518V42.7148H114.273V14.9235H121.24ZM138.236 14.9235H145.203V29.8528C145.203 35.2502 147.309 37.7384 152.477 37.7384C157.989 37.7384 159.788 34.7143 159.788 30.1973V14.9235H166.755V30.5801C166.755 39.04 161.817 43.4422 152.477 43.4422C143.136 43.4422 138.236 38.9251 138.236 30.5418V14.9235ZM171.434 14.9235H180.009L193.904 34.5229V14.9235H200.603V42.7148H192.143L178.133 22.9241V42.7148H171.434V14.9235ZM201.401 42.7148L214.569 14.9235H221.23L233.9 42.7148H226.168L223.641 36.8197H211.392L208.904 42.7148H201.401ZM213.765 31.1926H221.115L217.402 22.6178L213.765 31.1926ZM234.689 42.7148V14.9235H251.762C258.997 14.9235 262.557 17.1438 262.557 22.3881C262.557 25.6802 260.872 28.3215 257.963 29.4317C260.949 30.6566 261.293 32.1878 261.446 35.3651C261.6 38.6954 261.6 41.1836 262.939 42.7148H255.13C254.747 42.1024 254.556 41.375 254.556 40.5712V38.6572C254.556 33.9487 253.829 32.4941 249.694 32.4941H241.656V42.7148H234.689ZM241.656 20.6273V26.7903H249.541C253.293 26.7903 255.207 26.1013 255.207 23.4983C255.207 20.8569 253.255 20.6273 249.235 20.6273H241.656ZM262.263 14.9235H271.106L278.034 24.8381L284.925 14.9235H293.729L281.365 30.848V42.7148H274.398V30.848L262.263 14.9235Z" fill="black"/>
<path d="M117.817 65.4643C116.671 65.4643 115.644 65.1896 114.736 64.6403C113.829 64.091 113.115 63.3058 112.596 62.2848C112.076 61.2578 111.817 60.0368 111.817 58.6217C111.817 57.1946 112.076 55.9706 112.596 54.9496C113.121 53.9226 113.835 53.1344 114.736 52.5851C115.644 52.0358 116.671 51.7611 117.817 51.7611C118.522 51.7611 119.182 51.8626 119.797 52.0656C120.418 52.2687 120.973 52.5642 121.463 52.9523C121.952 53.3404 122.355 53.8151 122.672 54.3764C122.994 54.9376 123.209 55.5735 123.317 56.2841H121.293C121.215 55.8482 121.069 55.4661 120.854 55.1377C120.645 54.8033 120.385 54.5227 120.074 54.2958C119.77 54.0629 119.427 53.8897 119.044 53.7763C118.668 53.6569 118.268 53.5972 117.844 53.5972C117.08 53.5972 116.39 53.7912 115.775 54.1793C115.166 54.5615 114.686 55.1287 114.333 55.881C113.987 56.6274 113.814 57.5409 113.814 58.6217C113.814 59.7084 113.99 60.6249 114.342 61.3712C114.695 62.1116 115.175 62.6729 115.784 63.055C116.393 63.4372 117.077 63.6282 117.835 63.6282C118.259 63.6282 118.659 63.5715 119.036 63.4581C119.412 63.3446 119.755 63.1745 120.065 62.9476C120.376 62.7207 120.636 62.446 120.845 62.1236C121.06 61.7952 121.209 61.416 121.293 60.9861H123.317C123.215 61.6489 123.009 62.2549 122.699 62.8043C122.388 63.3476 121.991 63.8193 121.507 64.2194C121.024 64.6134 120.472 64.9209 119.851 65.1419C119.23 65.3568 118.552 65.4643 117.817 65.4643ZM123.707 56.9558V55.272H132.135V56.9558H128.884V65.2852H126.976V56.9558H123.707ZM132.892 69.0289V55.272H134.773V56.9021H134.934C135.053 56.6931 135.218 56.4513 135.427 56.1766C135.642 55.9019 135.94 55.6631 136.322 55.4601C136.704 55.2511 137.203 55.1466 137.818 55.1466C138.624 55.1466 139.341 55.3496 139.967 55.7556C140.6 56.1617 141.099 56.7498 141.463 57.52C141.827 58.2903 142.01 59.2188 142.01 60.3054C142.01 61.3802 141.83 62.3057 141.472 63.0819C141.114 63.8521 140.618 64.4462 139.985 64.8642C139.358 65.2762 138.639 65.4822 137.827 65.4822C137.224 65.4822 136.728 65.3807 136.34 65.1777C135.958 64.9687 135.657 64.7269 135.436 64.4522C135.221 64.1776 135.053 63.9357 134.934 63.7268H134.827V69.0289H132.892ZM137.406 63.8253C137.985 63.8253 138.469 63.67 138.857 63.3596C139.245 63.0491 139.538 62.6281 139.735 62.0967C139.938 61.5593 140.039 60.9563 140.039 60.2875C140.039 59.6248 139.941 59.0307 139.744 58.5052C139.547 57.9798 139.254 57.5648 138.866 57.2603C138.478 56.9558 137.991 56.8035 137.406 56.8035C136.839 56.8035 136.361 56.9498 135.973 57.2424C135.585 57.529 135.289 57.935 135.086 58.4604C134.889 58.9799 134.791 59.5889 134.791 60.2875C134.791 60.9861 134.892 61.6011 135.095 62.1325C135.298 62.6639 135.594 63.0789 135.982 63.3775C136.376 63.676 136.851 63.8253 137.406 63.8253ZM147.075 65.4912C146.137 65.4912 145.316 65.2762 144.612 64.8463C143.913 64.4164 143.37 63.8133 142.982 63.0371C142.6 62.2609 142.409 61.3593 142.409 60.3323C142.409 59.2934 142.6 58.3858 142.982 57.6096C143.37 56.8274 143.913 56.2214 144.612 55.7915C145.316 55.3616 146.137 55.1466 147.075 55.1466C148.018 55.1466 148.839 55.3616 149.538 55.7915C150.236 56.2214 150.78 56.8274 151.168 57.6096C151.556 58.3858 151.75 59.2934 151.75 60.3323C151.75 61.3593 151.556 62.2609 151.168 63.0371C150.78 63.8133 150.236 64.4164 149.538 64.8463C148.839 65.2762 148.018 65.4912 147.075 65.4912ZM147.075 63.8521C147.69 63.8521 148.197 63.6909 148.597 63.3685C148.997 63.0461 149.293 62.6192 149.484 62.0878C149.681 61.5504 149.78 60.9652 149.78 60.3323C149.78 59.6875 149.681 59.0963 149.484 58.559C149.293 58.0216 148.997 57.5917 148.597 57.2693C148.197 56.9468 147.69 56.7856 147.075 56.7856C146.466 56.7856 145.961 56.9468 145.561 57.2693C145.167 57.5917 144.872 58.0216 144.675 58.559C144.478 59.0963 144.379 59.6875 144.379 60.3323C144.379 60.9652 144.478 61.5504 144.675 62.0878C144.872 62.6192 145.167 63.0461 145.561 63.3685C145.961 63.6909 146.466 63.8521 147.075 63.8521ZM154.496 62.5445L158.911 55.272H161.007V65.2852H159.108V58.0037L154.711 65.2852H152.606V55.272H154.496V62.5445ZM161.075 56.9558V55.272H169.503V56.9558H166.251V65.2852H164.344V56.9558H161.075ZM174.102 65.4912C173.123 65.4912 172.275 65.2792 171.559 64.8553C170.842 64.4313 170.29 63.8342 169.902 63.064C169.519 62.2878 169.328 61.3832 169.328 60.3502C169.328 59.3232 169.516 58.4187 169.893 57.6365C170.275 56.8543 170.809 56.2453 171.496 55.8094C172.188 55.3675 173 55.1466 173.932 55.1466C174.499 55.1466 175.048 55.2392 175.58 55.4243C176.111 55.6094 176.589 55.9019 177.013 56.302C177.437 56.702 177.771 57.2215 178.016 57.8604C178.267 58.4993 178.392 59.2695 178.392 60.1711V60.8697H170.43V59.4098H177.389L176.484 59.8935C176.484 59.2785 176.389 58.7351 176.198 58.2634C176.007 57.7917 175.72 57.4245 175.338 57.1618C174.962 56.8931 174.493 56.7588 173.932 56.7588C173.371 56.7588 172.89 56.8931 172.49 57.1618C172.096 57.4305 171.794 57.7857 171.585 58.2276C171.376 58.6694 171.272 59.1531 171.272 59.6785V60.6727C171.272 61.3593 171.391 61.9415 171.63 62.4191C171.869 62.8968 172.2 63.261 172.624 63.5118C173.054 63.7626 173.553 63.888 174.12 63.888C174.49 63.888 174.825 63.8342 175.123 63.7268C175.428 63.6193 175.69 63.4581 175.911 63.2431C176.132 63.0282 176.299 62.7625 176.413 62.446L178.258 62.7953C178.109 63.3327 177.846 63.8044 177.47 64.2104C177.094 64.6164 176.619 64.9329 176.046 65.1598C175.478 65.3807 174.831 65.4912 174.102 65.4912ZM178.406 65.2852L178.397 63.6014H178.746C179.123 63.5954 179.418 63.4849 179.633 63.27C179.854 63.0491 180.018 62.658 180.126 62.0967C180.239 61.5354 180.314 60.7413 180.35 59.7143L180.529 55.272H187.506V65.2852H185.598V56.9558H182.32L182.159 60.3681C182.123 61.1921 182.042 61.9116 181.917 62.5266C181.792 63.1416 181.607 63.6551 181.362 64.0671C181.117 64.4731 180.803 64.7776 180.421 64.9806C180.039 65.1837 179.573 65.2852 179.024 65.2852H178.406ZM190.269 58.7291H193.18C194.398 58.7232 195.336 59.0247 195.992 59.6337C196.655 60.2428 196.99 61.0279 196.996 61.9892C196.996 62.6162 196.846 63.1774 196.548 63.673C196.249 64.1686 195.816 64.5627 195.249 64.8553C194.682 65.1419 193.992 65.2852 193.18 65.2852H188.809V55.272H190.699V63.6014H193.18C193.735 63.6014 194.192 63.4581 194.55 63.1715C194.909 62.8789 195.091 62.5027 195.097 62.043C195.091 61.5593 194.909 61.1653 194.55 60.8607C194.192 60.5562 193.735 60.407 193.18 60.4129H190.269V58.7291ZM204.613 59.4367V61.1205H199.195V59.4367H204.613ZM199.732 55.272V65.2852H197.842V55.272H199.732ZM205.975 55.272V65.2852H204.076V55.272H205.975ZM208.747 58.7291H211.658C212.876 58.7232 213.814 59.0247 214.47 59.6337C215.133 60.2428 215.467 61.0279 215.473 61.9892C215.473 62.6162 215.324 63.1774 215.026 63.673C214.727 64.1686 214.294 64.5627 213.727 64.8553C213.16 65.1419 212.47 65.2852 211.658 65.2852H207.287V55.272H209.177V63.6014H211.658C212.213 63.6014 212.67 63.4581 213.028 63.1715C213.387 62.8789 213.569 62.5027 213.575 62.043C213.569 61.5593 213.387 61.1653 213.028 60.8607C212.67 60.5562 212.213 60.407 211.658 60.4129H208.747V58.7291ZM216.898 65.2852V55.272H218.832V65.2852H216.898ZM222.026 62.5445L226.441 55.272H228.537V65.2852H226.638V58.0037L222.24 65.2852H220.136V55.272H222.026V62.5445ZM224.318 54.1077C223.465 54.1077 222.772 53.8748 222.24 53.4091C221.709 52.9374 221.443 52.3254 221.443 51.573H223.047C223.047 51.9552 223.163 52.2657 223.396 52.5045C223.629 52.7374 223.936 52.8538 224.318 52.8538C224.7 52.8538 225.008 52.7374 225.241 52.5045C225.474 52.2657 225.59 51.9552 225.59 51.573H227.193C227.193 52.3254 226.928 52.9374 226.396 53.4091C225.865 53.8748 225.172 54.1077 224.318 54.1077ZM238.99 62.8759L242.223 55.272H243.898L239.715 65.2852H238.264L234.162 55.272H235.819L238.99 62.8759ZM235.273 55.272V65.2852H233.383V55.272H235.273ZM242.751 65.2852V55.272H244.632V65.2852H242.751ZM248.847 65.5001C248.214 65.5001 247.641 65.3837 247.127 65.1508C246.614 64.912 246.208 64.5657 245.909 64.1119C245.611 63.6581 245.461 63.1058 245.461 62.455C245.461 61.8877 245.569 61.425 245.784 61.0667C246.005 60.7025 246.3 60.4129 246.67 60.198C247.041 59.983 247.453 59.8218 247.906 59.7143C248.36 59.6069 248.826 59.5233 249.304 59.4636C249.907 59.3979 250.393 59.3412 250.763 59.2934C251.134 59.2456 251.402 59.171 251.57 59.0695C251.743 58.962 251.829 58.7918 251.829 58.559V58.5142C251.829 57.947 251.668 57.5081 251.346 57.1976C251.029 56.8871 250.557 56.7319 249.931 56.7319C249.28 56.7319 248.763 56.8752 248.381 57.1618C248.005 57.4424 247.745 57.7619 247.602 58.1201L245.766 57.6992C245.987 57.0901 246.306 56.6005 246.724 56.2303C247.148 55.8542 247.632 55.5795 248.175 55.4063C248.724 55.2332 249.298 55.1466 249.895 55.1466C250.295 55.1466 250.719 55.1944 251.166 55.2899C251.614 55.3795 252.035 55.5496 252.429 55.8004C252.829 56.0452 253.155 56.3975 253.406 56.8573C253.656 57.317 253.782 57.9111 253.782 58.6396V65.2852H251.874V63.9148H251.802C251.683 64.1596 251.495 64.4045 251.238 64.6493C250.987 64.8941 250.665 65.0971 250.271 65.2583C249.877 65.4195 249.402 65.5001 248.847 65.5001ZM249.268 63.9417C249.811 63.9417 250.274 63.8372 250.656 63.6282C251.038 63.4133 251.331 63.1327 251.534 62.7863C251.737 62.44 251.838 62.0728 251.838 61.6847V60.3861C251.767 60.4517 251.632 60.5144 251.435 60.5741C251.238 60.6338 251.014 60.6846 250.763 60.7264C250.513 60.7682 250.268 60.807 250.029 60.8428C249.79 60.8727 249.59 60.8966 249.429 60.9145C249.053 60.9682 248.709 61.0518 248.399 61.1653C248.089 61.2727 247.838 61.4339 247.647 61.6489C247.462 61.8579 247.369 62.1355 247.369 62.4818C247.369 62.9655 247.548 63.3297 247.906 63.5745C248.265 63.8193 248.718 63.9417 249.268 63.9417ZM261.489 55.272V56.9558H257.011V65.2852H255.103V55.272H261.489ZM264.674 65.5001C264.041 65.5001 263.468 65.3837 262.954 65.1508C262.441 64.912 262.035 64.5657 261.736 64.1119C261.437 63.6581 261.288 63.1058 261.288 62.455C261.288 61.8877 261.396 61.425 261.611 61.0667C261.832 60.7025 262.127 60.4129 262.497 60.198C262.867 59.983 263.279 59.8218 263.733 59.7143C264.187 59.6069 264.653 59.5233 265.13 59.4636C265.734 59.3979 266.22 59.3412 266.59 59.2934C266.961 59.2456 267.229 59.171 267.396 59.0695C267.57 58.962 267.656 58.7918 267.656 58.559V58.5142C267.656 57.947 267.495 57.5081 267.172 57.1976C266.856 56.8871 266.384 56.7319 265.757 56.7319C265.107 56.7319 264.59 56.8752 264.208 57.1618C263.832 57.4424 263.572 57.7619 263.429 58.1201L261.593 57.6992C261.814 57.0901 262.133 56.6005 262.551 56.2303C262.975 55.8542 263.459 55.5795 264.002 55.4063C264.551 55.2332 265.124 55.1466 265.722 55.1466C266.122 55.1466 266.546 55.1944 266.993 55.2899C267.441 55.3795 267.862 55.5496 268.256 55.8004C268.656 56.0452 268.982 56.3975 269.232 56.8573C269.483 57.317 269.609 57.9111 269.609 58.6396V65.2852H267.701V63.9148H267.629C267.51 64.1596 267.322 64.4045 267.065 64.6493C266.814 64.8941 266.492 65.0971 266.098 65.2583C265.704 65.4195 265.229 65.5001 264.674 65.5001ZM265.095 63.9417C265.638 63.9417 266.101 63.8372 266.483 63.6282C266.865 63.4133 267.158 63.1327 267.361 62.7863C267.564 62.44 267.665 62.0728 267.665 61.6847V60.3861C267.593 60.4517 267.459 60.5144 267.262 60.5741C267.065 60.6338 266.841 60.6846 266.59 60.7264C266.34 60.7682 266.095 60.807 265.856 60.8428C265.617 60.8727 265.417 60.8966 265.256 60.9145C264.88 60.9682 264.536 61.0518 264.226 61.1653C263.915 61.2727 263.665 61.4339 263.474 61.6489C263.288 61.8579 263.196 62.1355 263.196 62.4818C263.196 62.9655 263.375 63.3297 263.733 63.5745C264.092 63.8193 264.545 63.9417 265.095 63.9417ZM270.724 62.6341H272.704C272.739 63.0461 272.927 63.3625 273.268 63.5835C273.614 63.8044 274.065 63.9178 274.62 63.9238C275.175 63.9178 275.65 63.7954 276.044 63.5566C276.438 63.3178 276.638 62.9386 276.644 62.4191C276.644 62.1206 276.567 61.8579 276.411 61.631C276.262 61.4041 276.05 61.2279 275.776 61.1026C275.507 60.9712 275.19 60.9085 274.826 60.9145H273.196V59.3829H274.826C275.37 59.3829 275.779 59.2605 276.053 59.0157C276.328 58.765 276.465 58.4485 276.465 58.0664C276.465 57.6544 276.319 57.323 276.026 57.0722C275.734 56.8214 275.325 56.699 274.799 56.705C274.28 56.699 273.844 56.8155 273.492 57.0543C273.139 57.2872 272.954 57.5887 272.936 57.9589H270.966C270.978 57.4036 271.145 56.914 271.468 56.4901C271.796 56.0661 272.241 55.7377 272.802 55.5049C273.363 55.266 273.999 55.1466 274.71 55.1466C275.45 55.1466 276.092 55.266 276.635 55.5049C277.179 55.7437 277.6 56.0751 277.898 56.499C278.197 56.917 278.343 57.4006 278.337 57.9499C278.343 58.4993 278.179 58.9501 277.844 59.3023C277.516 59.6546 277.089 59.9054 276.564 60.0547V60.1532C276.952 60.183 277.295 60.3025 277.594 60.5114C277.898 60.7145 278.134 60.9891 278.301 61.3354C278.474 61.6758 278.561 62.0639 278.561 62.4997C278.561 63.1088 278.391 63.6372 278.05 64.085C277.716 64.5328 277.253 64.8791 276.662 65.1239C276.071 65.3628 275.393 65.4852 274.629 65.4912C273.889 65.4852 273.226 65.3658 272.641 65.1329C272.062 64.9 271.602 64.5716 271.262 64.1477C270.921 63.7178 270.742 63.2133 270.724 62.6341ZM280.76 62.5445L285.176 55.272H287.272V65.2852H285.373V58.0037L280.975 65.2852H278.87V55.272H280.76V62.5445ZM295.355 59.4367V61.1205H289.937V59.4367H295.355ZM290.474 55.272V65.2852H288.584V55.272H290.474ZM296.716 55.272V65.2852H294.818V55.272H296.716Z" fill="black" fill-opacity="0.26"/>
<defs>
<linearGradient id="paint0_linear_6004_3117" x1="83.0319" y1="1.90625" x2="69.0429" y2="91.6421" gradientUnits="userSpaceOnUse">
<stop stop-color="#29EAD7"/>
<stop offset="1" stop-color="#1B89E3"/>
</linearGradient>
<linearGradient id="paint1_linear_6004_3117" x1="83.0319" y1="1.90625" x2="69.0429" y2="91.6421" gradientUnits="userSpaceOnUse">
<stop stop-color="#29EAD7"/>
<stop offset="1" stop-color="#1B89E3"/>
</linearGradient>
</defs>
</svg>
